<svg id="visual" viewBox="0 0 900 600" width="900" height="600" xmlns="http://www.w3.org/2000/svg" xmlns:xlink="http://www.w3.org/1999/xlink" version="1.1"><rect x="0" y="0" width="900" height="600" fill="#f5f5f5"></rect><path d="M0 307L21.5 297.2C43 287.3 86 267.7 128.8 268.5C171.7 269.3 214.3 290.7 257.2 290.2C300 289.7 343 267.3 385.8 264C428.7 260.7 471.3 276.3 514.2 286.5C557 296.7 600 301.3 642.8 300.7C685.7 300 728.3 294 771.2 293.2C814 292.3 857 296.7 878.5 298.8L900 301L900 601L878.5 601C857 601 814 601 771.2 601C728.3 601 685.7 601 642.8 601C600 601 557 601 514.2 601C471.3 601 428.7 601 385.8 601C343 601 300 601 257.2 601C214.3 601 171.7 601 128.8 601C86 601 43 601 21.5 601L0 601Z" fill="#d6e1e7"></path><path d="M0 341L21.5 339.2C43 337.3 86 333.7 128.8 330.5C171.7 327.3 214.3 324.7 257.2 319.8C300 315 343 308 385.8 307.7C428.7 307.3 471.3 313.7 514.2 322.5C557 331.3 600 342.7 642.8 335C685.7 327.3 728.3 300.7 771.2 294.3C814 288 857 302 878.5 309L900 316L900 601L878.5 601C857 601 814 601 771.2 601C728.3 601 685.7 601 642.8 601C600 601 557 601 514.2 601C471.3 601 428.7 601 385.8 601C343 601 300 601 257.2 601C214.3 601 171.7 601 128.8 601C86 601 43 601 21.5 601L0 601Z" fill="#bccfd8"></path><path d="M0 389L21.5 388.7C43 388.3 86 387.7 128.8 379.2C171.7 370.7 214.3 354.3 257.2 353.7C300 353 343 368 385.8 374.3C428.7 380.7 471.3 378.3 514.2 379.3C557 380.3 600 384.7 642.8 387.3C685.7 390 728.3 391 771.2 386.7C814 382.3 857 372.7 878.5 367.8L900 363L900 601L878.5 601C857 601 814 601 771.2 601C728.3 601 685.7 601 642.8 601C600 601 557 601 514.2 601C471.3 601 428.7 601 385.8 601C343 601 300 601 257.2 601C214.3 601 171.7 601 128.8 601C86 601 43 601 21.5 601L0 601Z" fill="#a1bdca"></path><path d="M0 374L21.5 380.8C43 387.7 86 401.3 128.8 406.7C171.7 412 214.3 409 257.2 408C300 407 343 408 385.8 409.5C428.7 411 471.3 413 514.2 416.7C557 420.3 600 425.7 642.8 428.5C685.7 431.3 728.3 431.7 771.2 427.7C814 423.7 857 415.3 878.5 411.2L900 407L900 601L878.5 601C857 601 814 601 771.2 601C728.3 601 685.7 601 642.8 601C600 601 557 601 514.2 601C471.3 601 428.7 601 385.8 601C343 601 300 601 257.2 601C214.3 601 171.7 601 128.8 601C86 601 43 601 21.5 601L0 601Z" fill="#86abbb"></path><path d="M0 468L21.5 466C43 464 86 460 128.8 454.7C171.7 449.3 214.3 442.7 257.2 445.5C300 448.3 343 460.7 385.8 466.8C428.7 473 471.3 473 514.2 468C557 463 600 453 642.8 450.2C685.7 447.3 728.3 451.7 771.2 449.7C814 447.7 857 439.3 878.5 435.2L900 431L900 601L878.5 601C857 601 814 601 771.2 601C728.3 601 685.7 601 642.8 601C600 601 557 601 514.2 601C471.3 601 428.7 601 385.8 601C343 601 300 601 257.2 601C214.3 601 171.7 601 128.8 601C86 601 43 601 21.5 601L0 601Z" fill="#6a9aac"></path><path d="M0 479L21.5 480.8C43 482.7 86 486.3 128.8 486C171.7 485.7 214.3 481.3 257.2 479.8C300 478.3 343 479.7 385.8 482.2C428.7 484.7 471.3 488.3 514.2 492.5C557 496.7 600 501.3 642.8 505C685.7 508.7 728.3 511.3 771.2 512.8C814 514.3 857 514.7 878.5 514.8L900 515L900 601L878.5 601C857 601 814 601 771.2 601C728.3 601 685.7 601 642.8 601C600 601 557 601 514.2 601C471.3 601 428.7 601 385.8 601C343 601 300 601 257.2 601C214.3 601 171.7 601 128.8 601C86 601 43 601 21.5 601L0 601Z" fill="#4c899e"></path><path d="M0 539L21.5 541.7C43 544.3 86 549.7 128.8 550.5C171.7 551.3 214.3 547.7 257.2 547.8C300 548 343 552 385.8 551.3C428.7 550.7 471.3 545.3 514.2 539.8C557 534.3 600 528.7 642.8 528.5C685.7 528.3 728.3 533.7 771.2 539C814 544.3 857 549.7 878.5 552.3L900 555L900 601L878.5 601C857 601 814 601 771.2 601C728.3 601 685.7 601 642.8 601C600 601 557 601 514.2 601C471.3 601 428.7 601 385.8 601C343 601 300 601 257.2 601C214.3 601 171.7 601 128.8 601C86 601 43 601 21.5 601L0 601Z" fill="#27798f"></path></svg>